<svg xmlns="http://www.w3.org/2000/svg" width="256" y="256" viewBox="0 0 256 256">
    <defs>
        <style>
            .leaf {
                fill: #28b328;;
            }
        </style>
    </defs>
    
    <path d="M0 256 a128 -32 180 0 1 256 0 Z" fill="#0b720b" /> <!-- Ground -->
    <rect width="64" height="160" x="96" y="80" fill="#5e3513" /> <!-- Tree trunk -->
    <!-- Leaves -->
    <g>
        <!-- <circle r="32" cx="" cy="" class="leaf" /> -->
        <circle r="32" cx="120" cy="90" class="leaf" />
        <circle r="32" cx="135" cy="38" class="leaf" />
        <circle r="32" cx="98" cy="72" class="leaf" />
        <circle r="32" cx="152" cy="76" class="leaf" />
        <circle r="32" cx="68" cy="113" class="leaf" />
        <circle r="32" cx="52" cy="54" class="leaf" />
        <circle r="32" cx="33" cy="87" class="leaf" />
        <circle r="32" cx="83" cy="33" class="leaf" />
        <circle r="32" cx="209" cy="39" class="leaf" />
        <circle r="32" cx="170" cy="32" class="leaf" />
        <circle r="32" cx="194" cy="90" class="leaf" />
        <circle r="32" cx="223" cy="80" class="leaf" />
    </g>
    <!-- Apple -->
    <g>
        <circle cx="200" cy="170" r="4" fill="#d11414" />
        <path d="M199 168 c-3 0 -4 -2 -4 -5 c3 0 4 2 4 5" class="leaf" />
        <path d="M200 162 l0 -15 M196 158 l0 -12 M 204 155 l0 -12" stroke="#1a1a1a" stroke-width="1" />
    </g>
</svg>